<svg xmlns="http://www.w3.org/2000/svg" version="1.1" xmlns:xlink="http://www.w3.org/1999/xlink" xmlns:svgjs="http://svgjs.dev/svgjs" width="1000" height="202" viewBox="0 0 1000 202"><g transform="matrix(1,0,0,1,-0.6060606060606233,-0.32246304853941865)"><svg viewBox="0 0 396 80" data-background-color="#ffffff" preserveAspectRatio="xMidYMid meet" height="202" width="1000" xmlns="http://www.w3.org/2000/svg" xmlns:xlink="http://www.w3.org/1999/xlink"><defs></defs><g id="tight-bounds" transform="matrix(1,0,0,1,0.2400000000000091,0.12770813803541614)"><svg viewBox="0 0 395.52 79.74458372392917" height="79.74458372392917" width="395.52"><g><svg viewBox="0 0 517.7374432567268 104.38601560173716" height="79.74458372392917" width="395.52"><g transform="matrix(1,0,0,1,0,14.426721403713316)"><svg viewBox="0 0 395.52 75.53257279431052" height="75.53257279431052" width="395.52"><g><svg viewBox="0 0 395.52 75.53257279431052" height="75.53257279431052" width="395.52"><g><svg viewBox="0 0 395.52 75.53257279431052" height="75.53257279431052" width="395.52"><g transform="matrix(1,0,0,1,0,0)"><svg width="395.52" viewBox="4.309999942779541 -31.3799991607666 164.30368041992188 31.3799991607666" height="75.53257279431052" data-palette-color="#9c27b0"><path d="M22.41 0L6.32 0Q5 0 4.48-1.15L4.48-1.15Q4.31-1.49 4.31-1.9L4.31-1.9 4.31-29.48Q4.31-30.8 5.52-31.21L5.52-31.21Q5.86-31.26 6.44-31.32 7.01-31.38 7.59-30.92 8.16-30.46 8.16-29.48L8.16-29.48 8.16-3.22 22.41-3.22Q23.28-3.22 23.65-2.73 24.02-2.24 24.02-1.64 24.02-1.03 23.62-0.52 23.22 0 22.41 0L22.41 0ZM29.77-1.9L29.77-29.48Q29.77-30.69 30.92-31.21L30.92-31.21Q31.26-31.26 31.89-31.32 32.53-31.38 33.07-30.92 33.62-30.46 33.62-29.48L33.62-29.48 33.62-1.9Q33.62-0.52 32.41-0.11L32.41-0.11Q32.07 0 31.49 0 30.92 0 30.34-0.46 29.77-0.92 29.77-1.9L29.77-1.9ZM42.81-30.11L52.41-3.33 52.41-3.33 61.78-30Q62.41-31.38 63.62-31.38L63.62-31.38Q64.31-31.38 64.77-31.03L64.77-31.03Q65.45-30.46 65.45-29.66L65.45-29.66 65.45-29.43Q65.45-29.31 65.34-29.08L65.34-29.08 55.51-2.3Q54.82 0 52.24 0L52.24 0Q49.94 0 49.13-2.3L49.13-2.3 39.13-28.97Q39.02-29.31 39.02-29.6 39.02-29.89 39.19-30.23 39.36-30.57 39.65-30.86L39.65-30.86Q40.28-31.38 40.97-31.38L40.97-31.38Q42.41-31.38 42.81-30.11L42.81-30.11ZM89.59 0L72.69 0Q72 0 71.54-0.46L71.54-0.46Q70.74-1.15 70.74-1.9L70.74-1.9 70.74-29.43Q70.74-30.52 71.89-31.15L71.89-31.15Q72.23-31.26 72.58-31.38L72.58-31.38 88.96-31.38Q89.82-31.38 90.22-30.86 90.62-30.34 90.62-29.74 90.62-29.14 90.16-28.62 89.71-28.1 88.96-28.1L88.96-28.1 74.53-28.1 74.53-17.7 88.27-17.7Q89.13-17.7 89.53-17.21 89.94-16.72 89.94-16.09L89.94-16.09Q89.94-15.52 89.48-15.06 89.02-14.6 88.27-14.6L88.27-14.6 74.53-14.6 74.53-3.22 89.59-3.22Q90.39-3.22 90.8-2.7 91.2-2.18 91.2-1.55 91.2-0.92 90.77-0.46 90.34 0 89.59 0L89.59 0ZM107.29 0L99.7 0Q98.5 0 97.86-1.15L97.86-1.15Q97.75-1.49 97.81-1.9L97.81-1.9 97.81-29.43Q97.81-30.57 98.9-31.21L98.9-31.21Q99.24-31.38 99.7-31.38L99.7-31.38 107.17-31.38Q119.53-31.38 122.92-22.41L122.92-22.41Q124.01-19.48 123.96-15.63L123.96-15.63Q123.96-7.93 119.59-3.97L119.59-3.97Q115.22 0 107.29 0L107.29 0ZM101.66-28.28L101.66-2.99 107.75-2.99Q116.94-2.99 119.13-10.46L119.13-10.46Q119.82-12.76 119.82-15.8 119.82-18.85 118.9-21.26 117.98-23.68 116.25-25.29L116.25-25.29Q112.98-28.28 106.6-28.28L106.6-28.28 101.66-28.28ZM131.19-1.9L131.19-29.48Q131.19-30.69 132.34-31.21L132.34-31.21Q132.69-31.26 133.32-31.32 133.95-31.38 134.5-30.92 135.04-30.46 135.04-29.48L135.04-29.48 135.04-1.9Q135.04-0.52 133.84-0.11L133.84-0.11Q133.49 0 132.92 0 132.34 0 131.77-0.46 131.19-0.92 131.19-1.9L131.19-1.9ZM143.49-1.72L143.49-28.79Q143.49-29.89 144.24-30.57L144.24-30.57Q144.93-31.26 145.73-31.38L145.73-31.38Q147.34-31.38 148.26-30.11L148.26-30.11 164.93-5 164.93-29.54Q164.93-30.46 165.27-30.8L165.27-30.8Q165.9-31.38 166.51-31.38 167.11-31.38 167.46-31.26 167.8-31.15 168.03-30.92L168.03-30.92Q168.66-30.46 168.61-29.54L168.61-29.54 168.61-2.59Q168.61-0.86 166.94-0.17L166.94-0.17Q166.54 0 165.9 0L165.9 0Q164.53 0 163.49-1.26L163.49-1.26 147.23-26.03 147.23-1.72Q147.23-0.92 146.77-0.57L146.77-0.57Q146.08 0 145.33 0 144.58 0 144.04-0.43 143.49-0.86 143.49-1.72L143.49-1.72Z" opacity="1" transform="matrix(1,0,0,1,0,0)" fill="#9c27b0" class="undefined-text-0" data-fill-palette-color="primary" id="text-0"></path></svg></g></svg></g></svg></g></svg></g><g transform="matrix(1,0,0,1,413.3514276549896,0)"><svg viewBox="0 0 104.38601560173716 104.38601560173716" height="104.38601560173716" width="104.38601560173716"><g data-palette-color="#9c27b0"><rect width="28.532177597808158" height="104.38601560173716" fill="#9c27b0" stroke="transparent" data-fill-palette-color="accent" x="0" fill-opacity="1"></rect><rect width="28.532177597808158" height="104.38601560173716" fill="#9c27b0" stroke="transparent" data-fill-palette-color="accent" x="34.795338533912386" fill-opacity="0.75"></rect><rect width="28.532177597808158" height="104.38601560173716" fill="#9c27b0" stroke="transparent" data-fill-palette-color="accent" x="69.59067706782477" fill-opacity="0.5"></rect></g></svg></g></svg></g></svg><rect width="395.52" height="79.74458372392917" fill="none" stroke="none" visibility="hidden"></rect></g></svg></g></svg>